<svg xmlns="http://www.w3.org/2000/svg" viewBox="0 0 192.51 87.34"><defs><style>.cls-1{fill:#33241c;}.cls-2{fill:#838180;}.cls-3{fill:#007bb8;}.cls-3,.cls-4,.cls-5{fill-rule:evenodd;}.cls-4{fill:#2e2318;}.cls-5{fill:#fff;}</style></defs><g id="Layer_2" data-name="Layer 2"><g id="Layer_1-2" data-name="Layer 1"><path class="cls-1" d="M9.64,71.52c0-.81-.06-1.65-.1-2.49l.48.06a3.4,3.4,0,0,0,.45,0,3.44,3.44,0,0,0,.46,0l.48-.06c0,.85-.08,1.68-.11,2.49s-.05,1.65-.05,2.5v3.31c0,.85,0,1.69.05,2.51s.06,1.63.1,2.43a9.18,9.18,0,0,0-.94,0,9.11,9.11,0,0,0-.93,0c0-.8.08-1.61.11-2.43s0-1.66,0-2.51V75.6l-2,0h-4l-2,0v1.74c0,.85,0,1.68,0,2.5s.07,1.63.11,2.43c-.3,0-.61,0-.94,0a9.11,9.11,0,0,0-.93,0c0-.8.07-1.61.11-2.43s.05-1.65.05-2.5V74c0-.85,0-1.68,0-2.49S0,69.87,0,69l.47.07.46,0a3.55,3.55,0,0,0,.46,0L1.88,69c0,.85-.08,1.68-.11,2.5S1.72,73.16,1.72,74v.68l2,0,2,0,2,0,2,0V74c0-.85,0-1.68,0-2.5"/><path class="cls-1" d="M14.2,75.5A4.17,4.17,0,0,1,15.27,74a4.43,4.43,0,0,1,1.5-.83,5.55,5.55,0,0,1,1.65-.25,5.28,5.28,0,0,1,1.66.26,4.09,4.09,0,0,1,1.48.83,4,4,0,0,1,1.08,1.48,6.24,6.24,0,0,1,0,4.45,4.19,4.19,0,0,1-1.08,1.49,3.9,3.9,0,0,1-1.49.79,5.5,5.5,0,0,1-1.66.23,6,6,0,0,1-1.65-.23,3.79,3.79,0,0,1-1.49-.8A4.15,4.15,0,0,1,14.19,80a5.52,5.52,0,0,1-.41-2.23,5.3,5.3,0,0,1,.42-2.22m1.4,3.78a4.27,4.27,0,0,0,.49,1.34,2.57,2.57,0,0,0,.91.94,3,3,0,0,0,2.82,0,2.56,2.56,0,0,0,.92-.93,4.36,4.36,0,0,0,.49-1.34,8.79,8.79,0,0,0,.14-1.56,8.12,8.12,0,0,0-.14-1.57,4,4,0,0,0-.49-1.33,2.49,2.49,0,0,0-.91-.94,3,3,0,0,0-2.82,0,2.64,2.64,0,0,0-.92.93,4,4,0,0,0-.48,1.34,7.94,7.94,0,0,0-.15,1.56,8.79,8.79,0,0,0,.14,1.56"/><path class="cls-1" d="M25.18,74.91c0-.64-.06-1.23-.12-1.79a4.53,4.53,0,0,0,.85.1l.34,0,.43-.07c0,.52-.06,1-.06,1.55h0a3.12,3.12,0,0,1,2.83-1.74,2.92,2.92,0,0,1,.93.15,3.33,3.33,0,0,1,.83.39,2.61,2.61,0,0,1,.63.61,2,2,0,0,1,.36.76h0a3.45,3.45,0,0,1,1.25-1.41,3.39,3.39,0,0,1,1.83-.49,4,4,0,0,1,1.17.17,2.4,2.4,0,0,1,1.54,1.49A4,4,0,0,1,38.28,76c0,.22,0,.46,0,.72s0,.55,0,.89,0,.73,0,1.16,0,.93,0,1.49c0,.35,0,.68,0,1s0,.66,0,1a2,2,0,0,0-.42,0H37a1.84,1.84,0,0,0-.41,0c0-.33.08-1,.12-2s.07-2.34.07-4.09a3.7,3.7,0,0,0-.11-.9,1.93,1.93,0,0,0-.33-.74,1.76,1.76,0,0,0-.61-.49,2.28,2.28,0,0,0-1-.18,2.33,2.33,0,0,0-1.92.9,1.8,1.8,0,0,0-.23.43,2.28,2.28,0,0,0-.14.64c0,.29-.05.7-.07,1.22s0,1.23,0,2.15c0,.55,0,1,0,1.51s0,.95.07,1.49c-.29,0-.57,0-.83,0s-.54,0-.83,0q.07-1.07.12-2.16T31,78c0-.6,0-1.07,0-1.41a8,8,0,0,0,0-.81,2.4,2.4,0,0,0-.11-.49,2.85,2.85,0,0,0-.18-.43A1.63,1.63,0,0,0,30,74.2a1.78,1.78,0,0,0-.92-.27,2.1,2.1,0,0,0-1.84.83,3.92,3.92,0,0,0-.59,2.33v1.64c0,.58,0,1.19,0,1.82a17,17,0,0,0,.13,1.73,8.51,8.51,0,0,0-.86,0,8.38,8.38,0,0,0-.86,0,17.2,17.2,0,0,0,.12-1.73c0-.63,0-1.24,0-1.82v-2c0-.58,0-1.19,0-1.82"/><path class="cls-1" d="M41.38,74.29a4,4,0,0,1,3.25-1.35,4.41,4.41,0,0,1,1.75.32,3.65,3.65,0,0,1,1.23.85,3.45,3.45,0,0,1,.73,1.24,4.81,4.81,0,0,1,.24,1.53c0,.13,0,.25,0,.37l0,.38-2,0-2,0c-.42,0-.84,0-1.25,0l-1.25,0a1.7,1.7,0,0,0,0,.28v.25a4.34,4.34,0,0,0,.22,1.41,3.29,3.29,0,0,0,.64,1.13,2.89,2.89,0,0,0,1,.75,3.26,3.26,0,0,0,1.41.28,3.09,3.09,0,0,0,.78-.1,4.3,4.3,0,0,0,.78-.29,4,4,0,0,0,.71-.44,3.37,3.37,0,0,0,.59-.53l.09,0-.11,1a5.31,5.31,0,0,1-1.42.79,5.33,5.33,0,0,1-3.64,0,4.12,4.12,0,0,1-1.47-.92,4.25,4.25,0,0,1-.95-1.44A4.6,4.6,0,0,1,40.26,78a5.69,5.69,0,0,1,1.12-3.72m2.1-.4a2.94,2.94,0,0,0-.8.81,4,4,0,0,0-.48,1.08,6.07,6.07,0,0,0-.2,1.11l1.23,0,1.25,0c.42,0,.84,0,1.28,0l1.25,0a7,7,0,0,0-.08-1.1,3.5,3.5,0,0,0-.34-1.08,2.31,2.31,0,0,0-.72-.83,2,2,0,0,0-1.2-.33,2.06,2.06,0,0,0-1.19.33"/><path class="cls-1" d="M50.78,80.93a2.8,2.8,0,0,0,.47.43,2.53,2.53,0,0,0,.63.34,2.13,2.13,0,0,0,.76.13,2.31,2.31,0,0,0,.69-.11,2,2,0,0,0,.59-.33,1.49,1.49,0,0,0,.41-.54,1.79,1.79,0,0,0,.15-.75,1.23,1.23,0,0,0-.33-.92,2.73,2.73,0,0,0-.83-.52,9.13,9.13,0,0,0-1.08-.35,4.6,4.6,0,0,1-1.09-.44,2.45,2.45,0,0,1-.83-.74A2.15,2.15,0,0,1,50,75.86a3.13,3.13,0,0,1,.21-1.17,2.47,2.47,0,0,1,.61-.91,2.91,2.91,0,0,1,1-.61A3.84,3.84,0,0,1,53.16,73a3.23,3.23,0,0,1,1.19.19c.32.13.63.25.92.35a3.75,3.75,0,0,0-.28.71,6.43,6.43,0,0,0-.18.66h-.22A1.9,1.9,0,0,0,54,74a1.64,1.64,0,0,0-1.08-.37,1.73,1.73,0,0,0-.58.1,1.53,1.53,0,0,0-.51.29,1.5,1.5,0,0,0-.38.5,1.64,1.64,0,0,0-.16.73,1.3,1.3,0,0,0,.34,1,2.16,2.16,0,0,0,.83.53,9.16,9.16,0,0,0,1.08.34,4.56,4.56,0,0,1,1.09.41,2.3,2.3,0,0,1,.83.72,2.15,2.15,0,0,1,.33,1.27,2.66,2.66,0,0,1-.24,1.1,3.1,3.1,0,0,1-.68,1,3.15,3.15,0,0,1-1.08.68,4,4,0,0,1-1.43.24,5.08,5.08,0,0,1-1.47-.18,4.63,4.63,0,0,1-1-.4,4.46,4.46,0,0,0,.24-.69,2.82,2.82,0,0,0,.12-.72h.23a2.27,2.27,0,0,0,.3.43"/><path class="cls-1" d="M65,70.57c0,.49-.06,1-.08,1.43s0,.94-.07,1.42h.78c.38,0,.8,0,1.24,0a1,1,0,0,0,0,.22V74a.78.78,0,0,0,0,.19l-.52,0h-1.5c0,.05,0,.26,0,.62s0,.79,0,1.28,0,1,0,1.55,0,1,0,1.45,0,.71,0,1.06A3.27,3.27,0,0,0,65,81a1.47,1.47,0,0,0,.46.67,1.37,1.37,0,0,0,.87.25,2.52,2.52,0,0,0,.42,0,3.64,3.64,0,0,0,.44-.1v.47l-.71.14a3.35,3.35,0,0,1-.76.09,2.34,2.34,0,0,1-1.77-.6,2.47,2.47,0,0,1-.57-1.76c0-.34,0-.72,0-1.12s0-.85,0-1.33,0-1,.05-1.6,0-1.24,0-2h-.93l-.37,0a1.92,1.92,0,0,0,0-.22,1.69,1.69,0,0,0,0-.23,1.28,1.28,0,0,0,0-.19,1.25,1.25,0,0,0,0-.19c.58,0,1,.06,1.26.06q0-.39,0-1c0-.39,0-.79,0-1.2l1.59-.67Z"/><path class="cls-1" d="M68.74,71.9l0-1.52c0-.5,0-1,0-1.44s0-.84-.06-1.17a4.62,4.62,0,0,0,.86.1,5.56,5.56,0,0,0,.86-.09c0,.32,0,.7-.07,1.15s0,.93,0,1.42l0,1.49c0,.5,0,1,0,1.39v1.46h0a4.14,4.14,0,0,1,1.29-1.28A3.39,3.39,0,0,1,73.26,73a3.77,3.77,0,0,1,1.08.16,2.53,2.53,0,0,1,1,.53,2.83,2.83,0,0,1,.72,1,4.31,4.31,0,0,1,.27,1.65c0,.55,0,1.12,0,1.7s0,1.21,0,1.86v1.86l0,.57c-.25,0-.52,0-.81,0s-.53,0-.79,0c0-.67.06-1.35.09-2.06s0-1.43,0-2.18V76.89a3.6,3.6,0,0,0-.55-2.18A1.8,1.8,0,0,0,72.73,74a2.27,2.27,0,0,0-2,.83,3.78,3.78,0,0,0-.62,2.33c0,.36,0,.78,0,1.26s0,1,0,1.43,0,1,0,1.4,0,.82.07,1.1a8.51,8.51,0,0,0-.86,0,8.38,8.38,0,0,0-.86,0c0-.3,0-.67.07-1.12s0-.93,0-1.43,0-1,0-1.52,0-1,0-1.43V73.33c0-.44,0-.92,0-1.43"/><path class="cls-1" d="M81,73.2A4.69,4.69,0,0,1,82.44,73a3.85,3.85,0,0,1,1.25.2,2.8,2.8,0,0,1,1,.58,2.72,2.72,0,0,1,.64.91,2.76,2.76,0,0,1,.23,1.16c0,.73,0,1.46,0,2.19s0,1.49,0,2.3c0,.16,0,.32,0,.49a1.64,1.64,0,0,0,.09.47.83.83,0,0,0,.22.33.57.57,0,0,0,.42.14h.2a.58.58,0,0,0,.21-.07v.43a2.34,2.34,0,0,1-.52.15,3.69,3.69,0,0,1-.69.06,1.31,1.31,0,0,1-1-.32,1.3,1.3,0,0,1-.39-.82,5,5,0,0,1-1.35,1,3.64,3.64,0,0,1-1.63.33,3.22,3.22,0,0,1-.93-.14,2.13,2.13,0,0,1-.81-.44,2.61,2.61,0,0,1-.57-.74,2.14,2.14,0,0,1-.22-1,2.28,2.28,0,0,1,.71-1.79,4,4,0,0,1,2-.85c.69-.11,1.22-.21,1.61-.29a4.18,4.18,0,0,0,.85-.26.6.6,0,0,0,.34-.32,1.57,1.57,0,0,0,0-.47,3.59,3.59,0,0,0-.11-.93,2.38,2.38,0,0,0-.36-.77A1.9,1.9,0,0,0,83,74a2.21,2.21,0,0,0-1-.2,3,3,0,0,0-1.42.34,2.32,2.32,0,0,0-1,1h-.2v-1A5.42,5.42,0,0,1,81,73.2m2.37,4.51-.86.16c-.29.06-.58.14-.86.22a2.83,2.83,0,0,0-.76.37,1.73,1.73,0,0,0-.53.58,1.69,1.69,0,0,0-.2.88,1.75,1.75,0,0,0,.51,1.37,1.66,1.66,0,0,0,1.14.47,2.31,2.31,0,0,0,1.32-.41,3.16,3.16,0,0,0,.92-.94l.07-2.89a5.09,5.09,0,0,1-.75.19"/><path class="cls-1" d="M90.46,70.58c0,.49-.06,1-.08,1.44s0,.94-.07,1.42h.78c.38,0,.79,0,1.24-.05a.91.91,0,0,0,0,.21V74a.78.78,0,0,0,0,.19l-.52,0h-1.5s0,.26,0,.62,0,.78-.05,1.28,0,1,0,1.55,0,1,0,1.44,0,.72,0,1.06a3.34,3.34,0,0,0,.18.94,1.39,1.39,0,0,0,.46.66,1.31,1.31,0,0,0,.87.26c.11,0,.24,0,.42,0a3.64,3.64,0,0,0,.44-.1v.46l-.71.15a3.33,3.33,0,0,1-.76.08,2.38,2.38,0,0,1-1.77-.59,2.47,2.47,0,0,1-.57-1.76c0-.35,0-.72,0-1.12s0-.85,0-1.34,0-1,0-1.6,0-1.23,0-1.95H88l-.37,0,0-.23a1.48,1.48,0,0,0,0-.22,1.21,1.21,0,0,0,0-.19,1.25,1.25,0,0,0,0-.19c.58,0,1,.06,1.26.06,0-.26,0-.58,0-1s0-.78,0-1.19l1.59-.68Z"/><path class="cls-2" d="M100.4,67.41h.76l.22.09.2,0h0l.21,0,.23,0,.76,0V82.29H102l-.08,0h-.27l-.23,0h-1Z"/><path class="cls-2" d="M106.21,69.11a.86.86,0,0,1,.23-.33,1.12,1.12,0,0,1,.33-.2,1,1,0,0,1,.36-.07h.76a1.77,1.77,0,0,1,.4.08,1.27,1.27,0,0,1,.36.2.86.86,0,0,1,.26.34,1.19,1.19,0,0,1,.09.47,1.41,1.41,0,0,1-.13.48,1.23,1.23,0,0,1-.26.33,1.26,1.26,0,0,1-.32.21,1.13,1.13,0,0,1-.36.06l-.77,0a.78.78,0,0,1-.37,0,1.15,1.15,0,0,1-.33-.21.84.84,0,0,1-.25-.35,1.34,1.34,0,0,1-.08-.46v0a1.23,1.23,0,0,1,.08-.44m.07,3.78h.77a.11.11,0,0,0,0,0h0l0,0h.18l.06,0h0l0,0h.1l.2,0,.18,0,.77,0v9.38h-.92l-.18,0h-.08a.91.91,0,0,1-.23,0h-1Z"/><path class="cls-2" d="M113.51,73.05c.06.24.14.49.22.75s.17.53.26.81l.15.42.15.43c0,.15.1.3.16.44s.11.28.16.42l.15.39c0,.13.09.26.14.39l.15.38.15.37c.1.24.21.48.31.71l.3.68.09.18a1.42,1.42,0,0,1,.08.18.2.2,0,0,0,0-.08l0-.07a1,1,0,0,1,0-.1l0-.1c.1-.21.2-.45.3-.69s.21-.49.33-.75a.56.56,0,0,1,0-.12l0-.11a.93.93,0,0,1,0-.1l0-.11a2.25,2.25,0,0,1,.08-.24,1.57,1.57,0,0,0,.09-.23l.44-1.15c.14-.37.27-.74.4-1.1s.23-.67.32-.93.14-.46.18-.63l1.35,0h.76c-.16.36-.32.71-.46,1l-.43,1c-.15.32-.28.65-.41,1s-.28.63-.41.94c-.07.14-.13.28-.19.43a3.79,3.79,0,0,1-.18.42l-.08.2-.09.2a1.09,1.09,0,0,1-.09.23l-.08.2c-.12.29-.23.59-.35.89l-.38.92c-.12.31-.25.62-.37.92s-.24.61-.37.91h-.88l-.11,0h-1l-3.9-9.25h2.71Z"/><path class="cls-2" d="M121.93,75.9a3.71,3.71,0,0,1,1-1.55,4.45,4.45,0,0,1,1.42-.94,4.4,4.4,0,0,1,1.67-.32h.76a4.77,4.77,0,0,1,1.43.22,2.69,2.69,0,0,1,1.05.59,5.18,5.18,0,0,1,.74.84,4.18,4.18,0,0,1,.48.91c0,.13.07.26.11.4a2.7,2.7,0,0,1,.08.41c0,.13,0,.25.05.38a1.94,1.94,0,0,1,0,.33v.2a.19.19,0,0,0,0,.07v.08a.76.76,0,0,1,0,.15.52.52,0,0,1,0,.14l-.77,0-5.7,0a6.89,6.89,0,0,0,.17,1.58,4,4,0,0,0,.52,1.21,2,2,0,0,0,.86.72,3.2,3.2,0,0,0,1.31.3,3.09,3.09,0,0,0,1.18-.3,3,3,0,0,0,.68-.38,2.51,2.51,0,0,0,.52-.51l.77,0,.15,1,0,.06,0,0-.11.08-.12.07a5.83,5.83,0,0,1-.62.39,5.37,5.37,0,0,1-.65.29,3.38,3.38,0,0,1-.81.23,6.9,6.9,0,0,1-1.06.07h-.76a5.66,5.66,0,0,1-2-.41,3.25,3.25,0,0,1-1.37-1,5.7,5.7,0,0,1-.79-1.45,6.14,6.14,0,0,1-.33-1.62v0a6.73,6.73,0,0,1,.32-2.16m6.45,1V76.7a0,0,0,0,1,0,0v0a4,4,0,0,0-.16-1,3.84,3.84,0,0,0-.41-.9,1.61,1.61,0,0,0-.56-.57,1.9,1.9,0,0,0-.85-.27,1.83,1.83,0,0,0-.68.23,1.89,1.89,0,0,0-.56.46,4.58,4.58,0,0,0-.52.75,3.76,3.76,0,0,0-.32.83c0,.07,0,.15,0,.23s0,.15,0,.23a1.8,1.8,0,0,0,0,.22V77l4.2,0Z"/><path class="cls-2" d="M139,69.13a.86.86,0,0,1,.23-.33,1.55,1.55,0,0,1,.32-.2,1.15,1.15,0,0,1,.37-.06l.76,0a1.77,1.77,0,0,1,.4.08,1.31,1.31,0,0,1,.36.21.88.88,0,0,1,.26.34,1.32,1.32,0,0,1,.08.47,1.16,1.16,0,0,1-.12.47,1.28,1.28,0,0,1-.26.34,1.22,1.22,0,0,1-.32.2,1.15,1.15,0,0,1-.37.06H140a1,1,0,0,1-.37-.05,1.12,1.12,0,0,1-.33-.2.94.94,0,0,1-.25-.36,1.34,1.34,0,0,1-.08-.46v0a1.25,1.25,0,0,1,.08-.45m.07,3.78h.77a.11.11,0,0,0,0,0l0,0v0h0l.09,0h.15l0,0h.11l.2,0,.18,0,.77,0v9.39h-.92l-.19,0h-.07l-.23,0h-1Z"/><path class="cls-2" d="M145,72.91h.76a.46.46,0,0,0,.14.07l.16,0h.08v0h.09l.22,0,.18,0,.76,0v.76l.37-.27a4.45,4.45,0,0,1,.45-.27,2.42,2.42,0,0,1,.7-.26,4,4,0,0,1,.88-.09l.76,0h.06a3.25,3.25,0,0,1,1.06.27,3.38,3.38,0,0,1,1,.68,2.82,2.82,0,0,1,.69,1.19,6.16,6.16,0,0,1,.22,1.83v5.57h-.84a.17.17,0,0,1-.08,0h-.21a.85.85,0,0,1-.23,0h-1V76.71a3.49,3.49,0,0,0-.17-1.16,2.33,2.33,0,0,0-.49-.86,2.37,2.37,0,0,0-.54-.43,1.63,1.63,0,0,0-.59-.22,2.45,2.45,0,0,0-.66.26,3.48,3.48,0,0,0-.6.52,2.25,2.25,0,0,0-.53.93,4.2,4.2,0,0,0-.17,1.29v5.28h-1l-.2,0h-.23l-.11,0h-.88Z"/><path class="cls-2" d="M162.22,73.17l.26,0h.25l.22,0,.18,0,.77,0a6.5,6.5,0,0,0,.22.7c.11.29.23.64.38,1L165,76.1q.25.65.54,1.32a.39.39,0,0,1,0,.09.2.2,0,0,0,0,.08.15.15,0,0,0,0,.09l0,.08a1.3,1.3,0,0,1,.08.17l.08.18c0,.09.07.19.11.28s.08.2.13.3l.12.28c0,.1.07.19.11.28a.2.2,0,0,1,0,0l0,0,0,0a.1.1,0,0,1,0,0l0,0a.09.09,0,0,1,0-.05v0l0,0,.25-.57.27-.61c0-.06.05-.13.09-.2a1.43,1.43,0,0,0,.08-.22l.09-.2a2.14,2.14,0,0,1,.1-.22c.18-.45.35-.88.52-1.29s.32-.82.46-1.22.25-.71.34-1a4,4,0,0,0,.17-.62l.76,0a.58.58,0,0,0,.15.06l.14,0a.62.62,0,0,0,.16,0l.15,0,.76,0-6.32,14.24h-.76l-.05,0h0l-.07,0-.05,0-.09,0-.09,0h-.08l-.11,0h-.76l2.54-5.16-3.88-9.1H162a1.43,1.43,0,0,0,.27.09"/><path class="cls-2" d="M172,76.05a4.88,4.88,0,0,1,1-1.63,4.28,4.28,0,0,1,1.58-1.09,5.44,5.44,0,0,1,2-.36h.76a5.25,5.25,0,0,1,1.5.23,3.1,3.1,0,0,1,1.13.62,6.26,6.26,0,0,1,.8.84,4.6,4.6,0,0,1,.57.95,3.67,3.67,0,0,1,.25.64,5.69,5.69,0,0,1,.15.63c0,.21.07.39.09.55a3.43,3.43,0,0,1,0,.41c0,.12,0,.24,0,.36s0,.25,0,.38a2.41,2.41,0,0,1-.07.37c0,.12-.06.25-.1.38a4.89,4.89,0,0,1-.56,1.15,5.51,5.51,0,0,1-.89,1.06,3.71,3.71,0,0,1-1.29.73,6,6,0,0,1-1.71.23H176.2a5.28,5.28,0,0,1-1.89-.31,3.54,3.54,0,0,1-1.42-.94,4.25,4.25,0,0,1-.89-1.42,4.86,4.86,0,0,1-.29-1.68v0a6.08,6.08,0,0,1,.33-2m2.24,2.53c0,.13,0,.27,0,.42s.06.32.1.48a2.35,2.35,0,0,0,.17.51,3.25,3.25,0,0,0,.34.67,3.3,3.3,0,0,0,.51.62,1.74,1.74,0,0,0,.58.39,2.82,2.82,0,0,0,.76.21,2.37,2.37,0,0,0,.89-.32,2.87,2.87,0,0,0,.75-.66,4.08,4.08,0,0,0,.64-1.27,7.7,7.7,0,0,0,.29-1.8,7.09,7.09,0,0,0-.17-1.65,4.54,4.54,0,0,0-.51-1.32,2.31,2.31,0,0,0-.75-.77,2.51,2.51,0,0,0-1-.34,2.24,2.24,0,0,0-1,.37,2.46,2.46,0,0,0-.78.82,5.19,5.19,0,0,0-.6,1.26,5.78,5.78,0,0,0-.25,1.4v.59a.19.19,0,0,0,0,.08l-.76,0v0h.76c0,.11,0,.22,0,.35"/><path class="cls-2" d="M183.87,73.09h.77l.18.09.2,0h.11l.22,0,.18-.05.77,0v5.44a5.35,5.35,0,0,0,.13,1.16,4.6,4.6,0,0,0,.38,1,2,2,0,0,0,.53.6,1.92,1.92,0,0,0,.73.31,2.57,2.57,0,0,0,.85-.25,1.5,1.5,0,0,0,.56-.53,3,3,0,0,0,.37-.73,3.42,3.42,0,0,0,.17-.81v0l0-.06V73.1h.76l0,0,0,0,0,0h.17l.07,0h0l0,0h.11l.2,0,.18,0,.76,0v9.23h-.93l-.18,0h-.07l-.23,0h-1v-.42a2.22,2.22,0,0,1-.27.19,1,1,0,0,1-.29.11c-.28.08-.57.14-.88.2a6,6,0,0,1-1,.07h-.77a4.48,4.48,0,0,1-1.24-.15,2.05,2.05,0,0,1-.84-.49,3.16,3.16,0,0,1-.49-.68,3.32,3.32,0,0,1-.29-.76c0-.07,0-.13,0-.19a.48.48,0,0,1,0-.18.86.86,0,0,1,0-.17,1.09,1.09,0,0,1,0-.18c0-.11,0-.23,0-.34V73.09Z"/><path class="cls-3" d="M53.85,29h8.37v5.58c0,1.12.24,2.24,1.51,2.24,1.6,0,1.66-1.81,1.66-3.16V32.23c0-6.35-11.59-5.52-11.6-15.42V14.88c0-6.32,3.83-8.6,9.78-8.61,8.36,0,9.89,3.87,9.9,7.61v3.24l-8,0V14.27c0-2.17-1-2.47-1.75-2.47s-1.51.54-1.5,2.28v1.51c0,5,11.89,5,11.9,15.18v2.72c0,7-4.23,8.88-10.47,8.89-8.51,0-9.74-4.07-9.74-9Z"/><path class="cls-3" d="M76,7l8.66,0v8.41h.1c.79-1.86,3.41-2.92,5.25-2.93,3.66,0,5.9,2.38,5.91,7.57l0,21.6H87.32V20.33c0-.88-.26-2-1.38-2s-1.22,1.22-1.22,2.09l0,21.26H76.07Z"/><path class="cls-3" d="M98.59,13.17H107v3.64h.11a6.45,6.45,0,0,1,5.34-4.38l0,10.34a14.71,14.71,0,0,0-1.47-.1,3.45,3.45,0,0,0-3.68,3.75V41.61H98.61Z"/><path class="cls-3" d="M113.68,13.16h8.66l0,28.44h-8.66Zm0-6.21,8.66,0V11.3l-8.65,0Z"/><path class="cls-3" d="M124.73,13.15l8.39,0v3.64h.1a6.44,6.44,0,0,1,5.34-4.37V22.74a14.13,14.13,0,0,0-1.46-.1,3.48,3.48,0,0,0-3.7,3.75l0,15.19h-8.67Z"/><path class="cls-3" d="M147.89,32.34c0-2,1-3.2,2.77-4.32v7.43a1.4,1.4,0,1,1-2.78-.14Zm11.43-11.56c0-6.6-3.8-8.39-9.94-8.38-6.53,0-9.55,2.43-9.54,8.69v3h8l0-5.63c0-.87.33-1.7,1.31-1.7a1.55,1.55,0,0,1,1.48,1.7v3.59c0,1.65-.45,2.14-5.32,4-5.29,1.95-5.49,3.12-5.49,6.37v3.83c0,3.59,1.95,6.07,5.65,6.06A7.76,7.76,0,0,0,151,40v1.6h8.37Z"/><path class="cls-3" d="M161.7,13.11h8.67v2.18h.1a4.61,4.61,0,0,1,2.24-2.13,6.4,6.4,0,0,1,3-.78,5.85,5.85,0,0,1,5.18,3.25c1.49-1.7,3.26-3.26,5.68-3.26,3.65,0,5.89,2.37,5.9,7.56l0,21.6h-8.68V20.22c0-.87-.25-2-1.37-2s-1.16,1.21-1.16,2.08l0,21.26h-8.38l0-21.31c0-.87-.24-2-1.32-2s-1.22,1.21-1.22,2.09V41.54h-8.65Z"/><path class="cls-3" d="M57.64,46.33h.69c.7,0,1,.32,1,.93v2.1c0,.61-.26.93-1,.93h-.68ZM53.78,59.19h3.88v-6.3h1.73c2.48,0,3.29-1.49,3.3-3.72v-1.9c0-2.41-1.37-3.53-3.68-3.53H53.77Z"/><path class="cls-3" d="M69.69,46.52h3.74v1.62h0a2.89,2.89,0,0,1,2.39-2v4.61c-.23,0-.43,0-.65,0a1.55,1.55,0,0,0-1.65,1.67V59.2H69.7Z"/><path class="cls-3" d="M86.73,49.06c0-.43.22-.85.7-.85s.69.42.69.85v6.71c0,.44-.2.84-.69.84s-.69-.4-.69-.84Zm-3.86,6c0,3.29,2.43,4.19,4.56,4.19S92,58.3,92,55V50.07c0-3.29-2.44-4.2-4.57-4.2s-4.56.92-4.55,4.22Z"/><path class="cls-3" d="M102.87,49.25c0-.61.25-.89.69-.89s.7.35.7.89v6.3c0,.66-.17,1.08-.69,1.08s-.7-.48-.7-1.08ZM99,60.78l3.86,0V57.82h.05a3.09,3.09,0,0,0,2.47,1.4c2.54,0,2.74-2.38,2.74-4.37v-5c0-2.21-.41-4-2.63-4a3.63,3.63,0,0,0-2.63,1.39V46.22H99Z"/><path class="cls-3" d="M119,49.07c0-.51.09-.84.58-.84s.67.42.68.89v1.56H119Zm-3.86,6c0,3.29,2.43,4.2,4.56,4.2S124,58.32,124,55V53.73h-3.74V56c0,.47-.12.89-.67.89s-.59-.33-.59-.83V52.76h5V50.09a4,4,0,0,0-4.3-4.2c-2.14,0-4.57.92-4.57,4.22Z"/><path class="cls-3" d="M131,46.56h3.74v1.62h0a2.87,2.87,0,0,1,2.38-1.94v4.61a4.48,4.48,0,0,0-.64-.05,1.54,1.54,0,0,0-1.65,1.67v6.78h-3.86Z"/><path class="cls-3" d="M144.21,46.57H145v-2h4v2h1v2.08h-1v8c0,.37.14.53.48.53h.55v2.07h-2.14c-2.61,0-2.9-1-2.89-3V48.65h-.8Z"/><path class="cls-3" d="M157.07,46.57H161V59.26h-3.87Zm0-2.77H161v1.94h-3.88Z"/><path class="cls-3" d="M171.84,49.09c0-.49.11-.82.58-.82s.69.41.69.89v1.56h-1.27Zm-3.86,6c0,3.29,2.43,4.19,4.56,4.18s4.31-.91,4.3-4.2V53.77H173.1V56c0,.48-.12.89-.68.89s-.59-.32-.59-.82V52.8h5V50.12a4,4,0,0,0-4.29-4.19c-2.14,0-4.55.91-4.56,4.21Z"/><path class="cls-3" d="M183.85,54.39h3.59v1.72a.63.63,0,0,0,.63.71.68.68,0,0,0,.69-.75v-.64c0-2-4.81-1.56-4.81-5.52,0-1.68.39-4,4.31-4,1.61,0,4.07.63,4.06,3.23l0,1.19h-3.59V49.17c0-.54-.22-.76-.6-.76s-.62.18-.62.76v.5c0,.78,1.29,1.22,3,2.17s2,2,2,3.76c0,2.81-1.83,3.68-4.58,3.67-2.49,0-4.07-.79-4.07-3.5Z"/><path class="cls-4" d="M48,56.4,46.61,45.54l-5.14.53a3.85,3.85,0,0,0,.2-2.47l.35-.46c.47-3.67.87-7.79,1.07-11.58a3.09,3.09,0,0,0-2.27-3.86l-9.77-4.54a2.86,2.86,0,0,1,1.21-2.79c.4-.06.64-.61.79-1.46C33,17,32.27,17,32.18,16.57a2,2,0,0,1,.73-1.79,3,3,0,0,0,.87-3.14c-1.71-2.73-3.31-1.41-3.79-1.53a1.4,1.4,0,0,1-.8-.8c-.92-2-4.45-2.93-7-2.94a7,7,0,0,0-5.79,2.4c-1.81,1.33-2.8,3.66-1.47,6.59a2.43,2.43,0,0,1,0,1.54,4.21,4.21,0,0,1-1.39.79c-1.19-1.86-2-4.67-2.85-6.39A7.56,7.56,0,0,1,11,9.23a3.43,3.43,0,0,0-.12-2A51.08,51.08,0,0,0,9.5,2.1C9.05.44,8.51-.16,7.85,0,6.86,0,6.58,1.23,6.65,3A3.15,3.15,0,0,0,4.72,4.24,1.32,1.32,0,0,0,3,4.84c-.79-.2-1.39.27-1.78,1a2.77,2.77,0,0,0,1.26,3c-.41.92.12,2.13,1.19,3.6,0,.13-.13.25-.27.39l-.59.54,2.4,9.13c.52,2.67,1,6.12,1.58,9.92a11.35,11.35,0,0,1,0,3.19l-2,12.12c.73.75,3.92,1.6,7.84,2.48l.27,2.12L5,54.3c-.52.27-.46,1.45.27,1.53l14.57-1.46.53-2.18a1,1,0,0,1,1.41-.07l1.65,5,11.19,3A1.66,1.66,0,0,0,36,59.91a1.64,1.64,0,0,0,0-1.73ZM14.35,51.46l-.14-1.73,1.14-.07.18,1.73Zm14.22,2.08V51.68A8.1,8.1,0,0,0,30,50.94a1.25,1.25,0,0,1,1.07.67l.66,3.71c-1.13-.39-2.26-1.38-3.2-1.78"/><path class="cls-5" d="M26.75,15.24a.77.77,0,0,1,.79.82.76.76,0,0,1-.79.79.81.81,0,1,1,0-1.61m-5.46-4.11A3.08,3.08,0,0,0,24,10.86a2.68,2.68,0,0,0,1.27.32c1.4-.32,2.66-.59,3.52.46a.65.65,0,0,1-.39.88c-1.8-.54-2.53,0-3.46,1.59.06.4.65.13,1.32-.37a1.32,1.32,0,0,1,1.33-.56l1.86.34c.53,0,1,.67.93,1.6.07,2.13-.53,4.07-.31,7.79a1.61,1.61,0,0,1-.62,1.47c-1.93.32-3.87.72-5.79,1.18a4.36,4.36,0,0,1-1.93-.13A17.72,17.72,0,0,1,17.76,24a2.79,2.79,0,0,1-1.27-2.68,16.35,16.35,0,0,0,.4-3.53l-.32-4.24c.13-1.21.6-2,1.8-2,.19.05.4.46.4.75a5.9,5.9,0,0,0-.8,1.51c-.07.47.4.73.8.34.32-.67.86-1,1.86-.66a2.72,2.72,0,0,1,1.19,2.26c-.07,1-.07,1.66-.14,2.59,0,.41.07.68.41.81a.59.59,0,0,1,.12.66,1.21,1.21,0,0,1-1,.34A5.38,5.38,0,0,1,19,18.91c-.24-.4-.71,0-.57.39l1.18,1.13c.73.67,1.19,2.67,3.67,2.67s2.91-1.58,3.51-2.39a7.57,7.57,0,0,1,.95-1.26,1,1,0,0,0,.8-.53c-.15-.34-.49-.66-.8-.54s-.15.13-.34.34l-.33.59c-2,1.34-2.8,1.13-3.07.33l.74-.72c.2-.47-.13-.66-.41-.55-.86.55-1.66.55-2-.38a18.75,18.75,0,0,0,.21-2.94,4.29,4.29,0,0,0-2.05-2.8c-.46-.34-.26-1.4.79-1.12m-1.6,4.31a.83.83,0,0,1,.86.8.82.82,0,0,1-.86.8.8.8,0,1,1,0-1.6m2.06,5.33h3.39c.27,0,.39.15.35.4a2,2,0,0,1-2.08,1.34,2.3,2.3,0,0,1-2.06-.94c-.41-.53-.2-.8.4-.8m3.19,5.4a30.21,30.21,0,0,0,3.92-1c.47-.19.94-.06.86.49A11,11,0,0,1,27.87,29c-.46.54-1,.54-1.67,0a6.82,6.82,0,0,1-1.79-2.12c-.08-.54.14-.79.53-.73m-3.59.13a27.9,27.9,0,0,1-3.2-1.21c-.45-.2-1,0-.79.81a5.75,5.75,0,0,0,2.06,3.19c.47.41.33.27.87,0a5.66,5.66,0,0,0,1.53-2c.13-.54,0-.74-.47-.8M8.13,3.44A18.7,18.7,0,0,1,7.65.79c0-.61.26-.81.88-.54a11.1,11.1,0,0,1,.86,3.53ZM7.06,2.93c-.59-.08-.93.1-1.14.78a3.52,3.52,0,0,0,.81,3c.4.25.6.12.72-.35C6.79,5,7.19,3.66,7.06,2.93M4.93,4c-.73-.26-1,.15-1.06.81-.07,1.93.8,2.8,1.79,1.88A6.41,6.41,0,0,1,4.93,4m-2,1c-.46-.19-.6.07-.67.53C2.21,6.91,3,8,3.6,7.31A6.7,6.7,0,0,1,2.93,5M5.66,7.44c.47-.4.66-.13.86.4A2,2,0,0,0,7.26,9c.26.33.73.67.93,1a.48.48,0,0,0,.27-.73c-.82-.6-.94-.79-.87-1.59,0-.54.54-.81,1.26-1A2.49,2.49,0,0,1,8,4.92c.06-.47.6-.61,1-.27s.8.8,1.33,2.2a2.16,2.16,0,0,1,.13,1.47c-.39,2.32-2.39,3.06-3.78,2.19a1.56,1.56,0,0,1-1.8.53,2.2,2.2,0,0,1-1.2-2.33.79.79,0,0,1,.47-.94,8.33,8.33,0,0,0,1.53-.33M35.23,47.08l10.54-.79,1,8L36.43,55.73Zm-3.58.19,2.53-.12,1,8.58a3.11,3.11,0,0,1-2.52-.13Zm2.14-3.66a3.2,3.2,0,0,1,1.27-2.93,1.48,1.48,0,0,1,1.78.07,1.75,1.75,0,0,1,1.34.47,1.49,1.49,0,0,1,1.19.47c1.07.4,1.8.4,1.6,1.86A2.25,2.25,0,0,1,40,44.83c-.6.58-1.33.65-1.45-.08l-1.21.86c-1.14.14-.8-.86-.87-1.79-.27-1.27-1-1.4-1.27-.73-.13,1.27-1.25,1.39-1.44.52"/></g></g></svg>